<svg width="320" height="320" viewBox="0 0 320 320" fill="none" xmlns="http://www.w3.org/2000/svg">
<rect width="320" height="320" fill="#1E1E1E"/>
<g id="Frame 1" clip-path="url(#clip0_0_1)">
<circle id="Ellipse 1" cx="160" cy="160" r="160" fill="#C100E1"/>
<g id="Ellipse 2" filter="url(#filter0_d_0_1)">
<circle cx="160" cy="159" r="145" fill="#0024E1"/>
<circle cx="160" cy="159" r="143.5" stroke="black" stroke-width="3"/>
</g>
<g id="S" filter="url(#filter1_d_0_1)">
<mask id="path-4-outside-1_0_1" maskUnits="userSpaceOnUse" x="91" y="53" width="140" height="201" fill="black">
<rect fill="white" x="91" y="53" width="140" height="201"/>
<path d="M104.7 225.2L138.9 220.1L171.6 210.5L179.4 197.9L176.1 185L168.3 175.4C166.1 174 163.8 172.7 161.4 171.5C159.2 170.1 156.9 169.1 154.5 168.5C152.3 167.7 150 167.4 147.6 167.6C145.4 167.6 143.2 168.3 141 169.7L133.5 175.1L108.6 163.4L99.6 140.3L107.4 101.6L121.2 83.3C121.8 84.7 123 85.2 124.8 84.8C126.6 84.4 128.4 83.6 130.2 82.4C132 81.2 133.5 79.8 134.7 78.2C135.9 76.4 136.2 74.8 135.6 73.4C139 72.4 142.9 71.4 147.3 70.4C151.7 69.2 155.5 67.5 158.7 65.3L197.4 57.2L203.7 56.6L209.1 62.9L204.3 75.8L193.2 78.8L178.8 80.3L156.9 91.4L146.7 104.6C143.5 107.6 141.9 110.9 141.9 114.5C142.1 117.9 143 121.6 144.6 125.6C146.8 130.2 148.4 133.2 149.4 134.6C150.6 135.8 152.1 136.9 153.9 137.9L171.6 143.9C173.6 145.5 175.4 146.8 177 147.8C178.8 148.6 180.8 149.1 183 149.3C185.2 149.5 188.3 149.7 192.3 149.9C196.5 150.1 201.8 150.4 208.2 150.8C210 154.2 212.1 157.2 214.5 159.8C216.9 162.2 219.2 165.4 221.4 169.4L227.4 182.9L218.4 212.9L211.2 220.7L196.5 242H189C186.4 242 183.2 242.1 179.4 242.3C175.8 242.3 171.5 242.3 166.5 242.3C161.5 242.3 157.1 242.8 153.3 243.8C149.5 244.8 146.1 245.9 143.1 247.1C140.1 248.1 137.5 249 135.3 249.8C133.1 250.6 131.1 250.9 129.3 250.7L118.5 247.4L100.5 250.4L94.2 237.5L96 230L104.7 225.2Z"/>
</mask>
<path d="M104.7 225.2L138.9 220.1L171.6 210.5L179.4 197.9L176.1 185L168.3 175.4C166.1 174 163.8 172.7 161.4 171.5C159.2 170.1 156.9 169.1 154.5 168.5C152.3 167.7 150 167.4 147.6 167.6C145.4 167.6 143.2 168.3 141 169.7L133.5 175.1L108.6 163.4L99.6 140.3L107.4 101.6L121.2 83.3C121.8 84.7 123 85.2 124.8 84.8C126.6 84.4 128.4 83.6 130.2 82.4C132 81.2 133.5 79.8 134.7 78.2C135.9 76.4 136.2 74.8 135.6 73.4C139 72.4 142.9 71.4 147.3 70.4C151.7 69.2 155.5 67.5 158.7 65.3L197.4 57.2L203.7 56.6L209.1 62.9L204.3 75.8L193.2 78.8L178.8 80.3L156.9 91.4L146.7 104.6C143.5 107.6 141.9 110.9 141.9 114.5C142.1 117.9 143 121.6 144.6 125.6C146.8 130.2 148.4 133.2 149.4 134.6C150.6 135.8 152.1 136.9 153.9 137.9L171.6 143.9C173.6 145.5 175.4 146.8 177 147.8C178.8 148.6 180.8 149.1 183 149.3C185.2 149.5 188.3 149.7 192.3 149.9C196.5 150.1 201.8 150.4 208.2 150.8C210 154.2 212.1 157.2 214.5 159.8C216.9 162.2 219.2 165.4 221.4 169.4L227.4 182.9L218.4 212.9L211.2 220.7L196.5 242H189C186.4 242 183.2 242.1 179.4 242.3C175.8 242.3 171.5 242.3 166.5 242.3C161.5 242.3 157.1 242.8 153.3 243.8C149.5 244.8 146.1 245.9 143.1 247.1C140.1 248.1 137.5 249 135.3 249.8C133.1 250.6 131.1 250.9 129.3 250.7L118.5 247.4L100.5 250.4L94.2 237.5L96 230L104.7 225.2Z" fill="#BD00FF"/>
<path d="M104.7 225.2L104.258 222.233L103.724 222.312L103.251 222.573L104.7 225.2ZM138.9 220.1L139.342 223.067L139.547 223.037L139.745 222.979L138.9 220.1ZM171.6 210.5L172.445 213.379L173.547 213.055L174.151 212.079L171.6 210.5ZM179.4 197.9L181.951 199.479L182.623 198.393L182.306 197.156L179.4 197.9ZM176.1 185L179.006 184.256L178.843 183.619L178.428 183.108L176.1 185ZM168.3 175.4L170.628 173.508L170.321 173.13L169.911 172.869L168.3 175.4ZM161.4 171.5L159.789 174.031L159.92 174.114L160.058 174.183L161.4 171.5ZM154.5 168.5L153.475 171.319L153.621 171.373L153.772 171.41L154.5 168.5ZM147.6 167.6V170.6H147.725L147.849 170.59L147.6 167.6ZM141 169.7L139.389 167.169L139.317 167.215L139.247 167.265L141 169.7ZM133.5 175.1L132.224 177.815L133.821 178.566L135.253 177.535L133.5 175.1ZM108.6 163.4L105.805 164.489L106.24 165.606L107.324 166.115L108.6 163.4ZM99.6 140.3L96.6591 139.707L96.4854 140.57L96.8047 141.389L99.6 140.3ZM107.4 101.6L105.005 99.7937L104.594 100.338L104.459 101.007L107.4 101.6ZM121.2 83.3L123.957 82.1182L121.92 77.3632L118.805 81.4937L121.2 83.3ZM124.8 84.8L124.149 81.8714L124.149 81.8714L124.8 84.8ZM130.2 82.4L131.864 84.8962L131.864 84.8961L130.2 82.4ZM134.7 78.2L137.1 80L137.15 79.9334L137.196 79.8641L134.7 78.2ZM135.6 73.4L134.754 70.5219L131.511 71.4755L132.843 74.5817L135.6 73.4ZM147.3 70.4L147.965 73.3254L148.027 73.3112L148.089 73.2943L147.3 70.4ZM158.7 65.3L158.085 62.3636L157.496 62.4869L157 62.8279L158.7 65.3ZM197.4 57.2L197.116 54.2135L196.949 54.2294L196.785 54.2636L197.4 57.2ZM203.7 56.6L205.978 54.6476L204.965 53.4659L203.416 53.6135L203.7 56.6ZM209.1 62.9L211.912 63.9462L212.528 62.2896L211.378 60.9476L209.1 62.9ZM204.3 75.8L205.083 78.6961L206.573 78.2932L207.112 76.8462L204.3 75.8ZM193.2 78.8L193.511 81.7838L193.75 81.7589L193.983 81.6961L193.2 78.8ZM178.8 80.3L178.489 77.3161L177.938 77.3735L177.444 77.6241L178.8 80.3ZM156.9 91.4L155.544 88.7241L154.94 89.0301L154.526 89.5656L156.9 91.4ZM146.7 104.6L148.752 106.789L148.927 106.624L149.074 106.434L146.7 104.6ZM141.9 114.5H138.9V114.588L138.905 114.676L141.9 114.5ZM144.6 125.6L141.815 126.714L141.851 126.806L141.894 126.894L144.6 125.6ZM149.4 134.6L146.959 136.344L147.103 136.546L147.279 136.721L149.4 134.6ZM153.9 137.9L152.443 140.522L152.68 140.654L152.937 140.741L153.9 137.9ZM171.6 143.9L173.474 141.557L173.062 141.228L172.563 141.059L171.6 143.9ZM177 147.8L175.41 150.344L175.589 150.456L175.782 150.541L177 147.8ZM192.3 149.9L192.15 152.896L192.157 152.897L192.3 149.9ZM208.2 150.8L210.851 149.396L210.065 147.911L208.387 147.806L208.2 150.8ZM214.5 159.8L212.296 161.835L212.336 161.879L212.379 161.921L214.5 159.8ZM221.4 169.4L224.141 168.182L224.09 168.066L224.029 167.954L221.4 169.4ZM227.4 182.9L230.273 183.762L230.593 182.697L230.141 181.682L227.4 182.9ZM218.4 212.9L220.604 214.935L221.074 214.426L221.273 213.762L218.4 212.9ZM211.2 220.7L208.996 218.665L208.852 218.821L208.731 218.996L211.2 220.7ZM196.5 242V245H198.075L198.969 243.704L196.5 242ZM179.4 242.3V245.3H179.479L179.558 245.296L179.4 242.3ZM153.3 243.8L154.063 246.701L154.063 246.701L153.3 243.8ZM143.1 247.1L144.049 249.946L144.132 249.918L144.214 249.885L143.1 247.1ZM135.3 249.8L136.325 252.619L136.325 252.619L135.3 249.8ZM129.3 250.7L128.423 253.569L128.691 253.651L128.969 253.682L129.3 250.7ZM118.5 247.4L119.377 244.531L118.702 244.325L118.007 244.441L118.5 247.4ZM100.5 250.4L97.8043 251.717L98.7862 253.727L100.993 253.359L100.5 250.4ZM94.2 237.5L91.2828 236.8L91.0313 237.848L91.5043 238.817L94.2 237.5ZM96 230L94.5508 227.373L93.3918 228.013L93.0828 229.3L96 230ZM105.142 228.167L139.342 223.067L138.458 217.133L104.258 222.233L105.142 228.167ZM139.745 222.979L172.445 213.379L170.755 207.621L138.055 217.221L139.745 222.979ZM174.151 212.079L181.951 199.479L176.849 196.321L169.049 208.921L174.151 212.079ZM182.306 197.156L179.006 184.256L173.194 185.744L176.494 198.643L182.306 197.156ZM178.428 183.108L170.628 173.508L165.972 177.292L173.772 186.892L178.428 183.108ZM169.911 172.869C167.621 171.412 165.231 170.061 162.742 168.817L160.058 174.183C162.369 175.338 164.579 176.588 166.689 177.931L169.911 172.869ZM163.011 168.969C160.553 167.405 157.957 166.272 155.228 165.59L153.772 171.41C155.843 171.928 157.847 172.795 159.789 174.031L163.011 168.969ZM155.525 165.681C152.906 164.728 150.17 164.375 147.351 164.61L147.849 170.59C149.83 170.425 151.694 170.672 153.475 171.319L155.525 165.681ZM147.6 164.6C144.731 164.6 141.98 165.52 139.389 167.169L142.611 172.231C144.42 171.08 146.069 170.6 147.6 170.6V164.6ZM139.247 167.265L131.747 172.665L135.253 177.535L142.753 172.135L139.247 167.265ZM134.776 172.385L109.876 160.685L107.324 166.115L132.224 177.815L134.776 172.385ZM111.395 162.311L102.395 139.211L96.8047 141.389L105.805 164.489L111.395 162.311ZM102.541 140.893L110.341 102.193L104.459 101.007L96.6591 139.707L102.541 140.893ZM109.795 103.406L123.595 85.1063L118.805 81.4937L105.005 99.7937L109.795 103.406ZM118.443 84.4817C118.993 85.7672 119.953 86.8928 121.396 87.4942C122.761 88.0627 124.191 88.0086 125.451 87.7285L124.149 81.8714C123.892 81.9286 123.736 81.9353 123.662 81.9329C123.595 81.9306 123.622 81.9216 123.704 81.9558C123.744 81.9724 123.788 81.9959 123.833 82.0266C123.877 82.0573 123.913 82.0894 123.94 82.118C123.995 82.1762 123.99 82.1949 123.957 82.1182L118.443 84.4817ZM125.451 87.7285C127.669 87.2356 129.808 86.2667 131.864 84.8962L128.536 79.9038C126.992 80.9333 125.531 81.5644 124.149 81.8714L125.451 87.7285ZM131.864 84.8961C133.924 83.5229 135.68 81.8935 137.1 80L132.3 76.4C131.32 77.7065 130.076 78.8771 128.536 79.9039L131.864 84.8961ZM137.196 79.8641C138.702 77.6058 139.51 74.9077 138.357 72.2182L132.843 74.5817C132.89 74.6922 133.098 75.1942 132.204 76.5359L137.196 79.8641ZM136.446 76.2781C139.773 75.2997 143.61 74.3151 147.965 73.3254L146.635 67.4746C142.19 68.4849 138.227 69.5002 134.754 70.5219L136.446 76.2781ZM148.089 73.2943C152.759 72.0208 156.878 70.193 160.4 67.7721L157 62.8279C154.122 64.807 150.641 66.3792 146.511 67.5057L148.089 73.2943ZM159.315 68.2364L198.015 60.1364L196.785 54.2636L158.085 62.3636L159.315 68.2364ZM197.684 60.1865L203.984 59.5865L203.416 53.6135L197.116 54.2135L197.684 60.1865ZM201.422 58.5524L206.822 64.8524L211.378 60.9476L205.978 54.6476L201.422 58.5524ZM206.288 61.8538L201.488 74.7538L207.112 76.8462L211.912 63.9462L206.288 61.8538ZM203.517 72.9039L192.417 75.9039L193.983 81.6961L205.083 78.6961L203.517 72.9039ZM192.889 75.8161L178.489 77.3161L179.111 83.2838L193.511 81.7838L192.889 75.8161ZM177.444 77.6241L155.544 88.7241L158.256 94.0759L180.156 82.9759L177.444 77.6241ZM154.526 89.5656L144.326 102.766L149.074 106.434L159.274 93.2343L154.526 89.5656ZM144.648 102.411C140.985 105.845 138.9 109.894 138.9 114.5H144.9C144.9 111.906 146.015 109.355 148.752 106.789L144.648 102.411ZM138.905 114.676C139.128 118.47 140.125 122.49 141.815 126.714L147.385 124.486C145.875 120.71 145.072 117.33 144.895 114.324L138.905 114.676ZM141.894 126.894C144.075 131.456 145.782 134.696 146.959 136.344L151.841 132.856C151.018 131.704 149.525 128.944 147.306 124.306L141.894 126.894ZM147.279 136.721C148.712 138.155 150.449 139.415 152.443 140.522L155.357 135.278C153.751 134.385 152.488 133.445 151.521 132.479L147.279 136.721ZM152.937 140.741L170.637 146.741L172.563 141.059L154.863 135.059L152.937 140.741ZM169.726 146.243C171.787 147.891 173.684 149.265 175.41 150.344L178.59 145.256C177.116 144.335 175.413 143.109 173.474 141.557L169.726 146.243ZM175.782 150.541C177.916 151.49 180.241 152.062 182.728 152.288L183.272 146.312C181.359 146.138 179.684 145.71 178.218 145.059L175.782 150.541ZM182.728 152.288C184.989 152.493 188.136 152.696 192.15 152.896L192.45 146.904C188.464 146.704 185.411 146.507 183.272 146.312L182.728 152.288ZM192.157 152.897C196.337 153.096 201.621 153.395 208.013 153.794L208.387 147.806C201.979 147.405 196.663 147.104 192.443 146.903L192.157 152.897ZM205.549 152.204C207.459 155.813 209.705 159.029 212.296 161.835L216.704 157.765C214.495 155.371 212.541 152.587 210.851 149.396L205.549 152.204ZM212.379 161.921C214.523 164.066 216.664 167.014 218.771 170.846L224.029 167.954C221.736 163.786 219.277 160.334 216.621 157.679L212.379 161.921ZM218.659 170.618L224.659 184.118L230.141 181.682L224.141 168.182L218.659 170.618ZM224.527 182.038L215.527 212.038L221.273 213.762L230.273 183.762L224.527 182.038ZM216.196 210.865L208.996 218.665L213.404 222.735L220.604 214.935L216.196 210.865ZM208.731 218.996L194.031 240.296L198.969 243.704L213.669 222.404L208.731 218.996ZM196.5 239H189V245H196.5V239ZM189 239C186.329 239 183.073 239.103 179.242 239.304L179.558 245.296C183.327 245.097 186.471 245 189 245V239ZM179.4 239.3C179.393 239.3 179.386 239.3 179.379 239.3C179.372 239.3 179.365 239.3 179.358 239.3C179.351 239.3 179.344 239.3 179.337 239.3C179.33 239.3 179.323 239.3 179.316 239.3C179.308 239.3 179.301 239.3 179.294 239.3C179.287 239.3 179.28 239.3 179.273 239.3C179.266 239.3 179.259 239.3 179.252 239.3C179.245 239.3 179.238 239.3 179.231 239.3C179.224 239.3 179.217 239.3 179.21 239.3C179.202 239.3 179.195 239.3 179.188 239.3C179.181 239.3 179.174 239.3 179.167 239.3C179.16 239.3 179.153 239.3 179.146 239.3C179.139 239.3 179.132 239.3 179.124 239.3C179.117 239.3 179.11 239.3 179.103 239.3C179.096 239.3 179.089 239.3 179.082 239.3C179.075 239.3 179.068 239.3 179.06 239.3C179.053 239.3 179.046 239.3 179.039 239.3C179.032 239.3 179.025 239.3 179.018 239.3C179.011 239.3 179.003 239.3 178.996 239.3C178.989 239.3 178.982 239.3 178.975 239.3C178.968 239.3 178.961 239.3 178.954 239.3C178.946 239.3 178.939 239.3 178.932 239.3C178.925 239.3 178.918 239.3 178.911 239.3C178.903 239.3 178.896 239.3 178.889 239.3C178.882 239.3 178.875 239.3 178.868 239.3C178.86 239.3 178.853 239.3 178.846 239.3C178.839 239.3 178.832 239.3 178.825 239.3C178.817 239.3 178.81 239.3 178.803 239.3C178.796 239.3 178.789 239.3 178.782 239.3C178.774 239.3 178.767 239.3 178.76 239.3C178.753 239.3 178.746 239.3 178.738 239.3C178.731 239.3 178.724 239.3 178.717 239.3C178.71 239.3 178.702 239.3 178.695 239.3C178.688 239.3 178.681 239.3 178.674 239.3C178.666 239.3 178.659 239.3 178.652 239.3C178.645 239.3 178.637 239.3 178.63 239.3C178.623 239.3 178.616 239.3 178.609 239.3C178.601 239.3 178.594 239.3 178.587 239.3C178.58 239.3 178.572 239.3 178.565 239.3C178.558 239.3 178.551 239.3 178.543 239.3C178.536 239.3 178.529 239.3 178.522 239.3C178.514 239.3 178.507 239.3 178.5 239.3C178.493 239.3 178.485 239.3 178.478 239.3C178.471 239.3 178.464 239.3 178.456 239.3C178.449 239.3 178.442 239.3 178.435 239.3C178.427 239.3 178.42 239.3 178.413 239.3C178.405 239.3 178.398 239.3 178.391 239.3C178.384 239.3 178.376 239.3 178.369 239.3C178.362 239.3 178.354 239.3 178.347 239.3C178.34 239.3 178.333 239.3 178.325 239.3C178.318 239.3 178.311 239.3 178.303 239.3C178.296 239.3 178.289 239.3 178.281 239.3C178.274 239.3 178.267 239.3 178.26 239.3C178.252 239.3 178.245 239.3 178.238 239.3C178.23 239.3 178.223 239.3 178.216 239.3C178.208 239.3 178.201 239.3 178.194 239.3C178.186 239.3 178.179 239.3 178.172 239.3C178.164 239.3 178.157 239.3 178.15 239.3C178.142 239.3 178.135 239.3 178.128 239.3C178.12 239.3 178.113 239.3 178.106 239.3C178.098 239.3 178.091 239.3 178.083 239.3C178.076 239.3 178.069 239.3 178.061 239.3C178.054 239.3 178.047 239.3 178.039 239.3C178.032 239.3 178.025 239.3 178.017 239.3C178.01 239.3 178.002 239.3 177.995 239.3C177.988 239.3 177.98 239.3 177.973 239.3C177.966 239.3 177.958 239.3 177.951 239.3C177.943 239.3 177.936 239.3 177.929 239.3C177.921 239.3 177.914 239.3 177.906 239.3C177.899 239.3 177.892 239.3 177.884 239.3C177.877 239.3 177.869 239.3 177.862 239.3C177.855 239.3 177.847 239.3 177.84 239.3C177.832 239.3 177.825 239.3 177.817 239.3C177.81 239.3 177.803 239.3 177.795 239.3C177.788 239.3 177.78 239.3 177.773 239.3C177.765 239.3 177.758 239.3 177.751 239.3C177.743 239.3 177.736 239.3 177.728 239.3C177.721 239.3 177.713 239.3 177.706 239.3C177.699 239.3 177.691 239.3 177.684 239.3C177.676 239.3 177.669 239.3 177.661 239.3C177.654 239.3 177.646 239.3 177.639 239.3C177.631 239.3 177.624 239.3 177.616 239.3C177.609 239.3 177.602 239.3 177.594 239.3C177.587 239.3 177.579 239.3 177.572 239.3C177.564 239.3 177.557 239.3 177.549 239.3C177.542 239.3 177.534 239.3 177.527 239.3C177.519 239.3 177.512 239.3 177.504 239.3C177.497 239.3 177.489 239.3 177.482 239.3C177.474 239.3 177.467 239.3 177.459 239.3C177.452 239.3 177.444 239.3 177.437 239.3C177.429 239.3 177.422 239.3 177.414 239.3C177.407 239.3 177.399 239.3 177.392 239.3C177.384 239.3 177.377 239.3 177.369 239.3C177.361 239.3 177.354 239.3 177.346 239.3C177.339 239.3 177.331 239.3 177.324 239.3C177.316 239.3 177.309 239.3 177.301 239.3C177.294 239.3 177.286 239.3 177.279 239.3C177.271 239.3 177.263 239.3 177.256 239.3C177.248 239.3 177.241 239.3 177.233 239.3C177.226 239.3 177.218 239.3 177.211 239.3C177.203 239.3 177.195 239.3 177.188 239.3C177.18 239.3 177.173 239.3 177.165 239.3C177.158 239.3 177.15 239.3 177.142 239.3C177.135 239.3 177.127 239.3 177.12 239.3C177.112 239.3 177.104 239.3 177.097 239.3C177.089 239.3 177.082 239.3 177.074 239.3C177.066 239.3 177.059 239.3 177.051 239.3C177.044 239.3 177.036 239.3 177.028 239.3C177.021 239.3 177.013 239.3 177.006 239.3C176.998 239.3 176.99 239.3 176.983 239.3C176.975 239.3 176.968 239.3 176.96 239.3C176.952 239.3 176.945 239.3 176.937 239.3C176.929 239.3 176.922 239.3 176.914 239.3C176.906 239.3 176.899 239.3 176.891 239.3C176.884 239.3 176.876 239.3 176.868 239.3C176.861 239.3 176.853 239.3 176.845 239.3C176.838 239.3 176.83 239.3 176.822 239.3C176.815 239.3 176.807 239.3 176.799 239.3C176.792 239.3 176.784 239.3 176.776 239.3C176.769 239.3 176.761 239.3 176.753 239.3C176.746 239.3 176.738 239.3 176.73 239.3C176.723 239.3 176.715 239.3 176.707 239.3C176.7 239.3 176.692 239.3 176.684 239.3C176.677 239.3 176.669 239.3 176.661 239.3C176.654 239.3 176.646 239.3 176.638 239.3C176.63 239.3 176.623 239.3 176.615 239.3C176.607 239.3 176.6 239.3 176.592 239.3C176.584 239.3 176.576 239.3 176.569 239.3C176.561 239.3 176.553 239.3 176.546 239.3C176.538 239.3 176.53 239.3 176.522 239.3C176.515 239.3 176.507 239.3 176.499 239.3C176.492 239.3 176.484 239.3 176.476 239.3C176.468 239.3 176.461 239.3 176.453 239.3C176.445 239.3 176.437 239.3 176.43 239.3C176.422 239.3 176.414 239.3 176.406 239.3C176.399 239.3 176.391 239.3 176.383 239.3C176.375 239.3 176.368 239.3 176.36 239.3C176.352 239.3 176.344 239.3 176.337 239.3C176.329 239.3 176.321 239.3 176.313 239.3C176.305 239.3 176.298 239.3 176.29 239.3C176.282 239.3 176.274 239.3 176.267 239.3C176.259 239.3 176.251 239.3 176.243 239.3C176.235 239.3 176.228 239.3 176.22 239.3C176.212 239.3 176.204 239.3 176.196 239.3C176.189 239.3 176.181 239.3 176.173 239.3C176.165 239.3 176.157 239.3 176.15 239.3C176.142 239.3 176.134 239.3 176.126 239.3C176.118 239.3 176.11 239.3 176.103 239.3C176.095 239.3 176.087 239.3 176.079 239.3C176.071 239.3 176.064 239.3 176.056 239.3C176.048 239.3 176.04 239.3 176.032 239.3C176.024 239.3 176.017 239.3 176.009 239.3C176.001 239.3 175.993 239.3 175.985 239.3C175.977 239.3 175.969 239.3 175.962 239.3C175.954 239.3 175.946 239.3 175.938 239.3C175.93 239.3 175.922 239.3 175.914 239.3C175.907 239.3 175.899 239.3 175.891 239.3C175.883 239.3 175.875 239.3 175.867 239.3C175.859 239.3 175.851 239.3 175.844 239.3C175.836 239.3 175.828 239.3 175.82 239.3C175.812 239.3 175.804 239.3 175.796 239.3C175.788 239.3 175.78 239.3 175.773 239.3C175.765 239.3 175.757 239.3 175.749 239.3C175.741 239.3 175.733 239.3 175.725 239.3C175.717 239.3 175.709 239.3 175.701 239.3C175.694 239.3 175.686 239.3 175.678 239.3C175.67 239.3 175.662 239.3 175.654 239.3C175.646 239.3 175.638 239.3 175.63 239.3C175.622 239.3 175.614 239.3 175.606 239.3C175.598 239.3 175.59 239.3 175.583 239.3C175.575 239.3 175.567 239.3 175.559 239.3C175.551 239.3 175.543 239.3 175.535 239.3C175.527 239.3 175.519 239.3 175.511 239.3C175.503 239.3 175.495 239.3 175.487 239.3C175.479 239.3 175.471 239.3 175.463 239.3C175.455 239.3 175.447 239.3 175.439 239.3C175.431 239.3 175.423 239.3 175.415 239.3C175.407 239.3 175.399 239.3 175.392 239.3C175.384 239.3 175.376 239.3 175.368 239.3C175.36 239.3 175.352 239.3 175.344 239.3C175.336 239.3 175.328 239.3 175.32 239.3C175.312 239.3 175.304 239.3 175.296 239.3C175.288 239.3 175.28 239.3 175.272 239.3C175.264 239.3 175.256 239.3 175.248 239.3C175.24 239.3 175.232 239.3 175.223 239.3C175.215 239.3 175.207 239.3 175.199 239.3C175.191 239.3 175.183 239.3 175.175 239.3C175.167 239.3 175.159 239.3 175.151 239.3C175.143 239.3 175.135 239.3 175.127 239.3C175.119 239.3 175.111 239.3 175.103 239.3C175.095 239.3 175.087 239.3 175.079 239.3C175.071 239.3 175.063 239.3 175.055 239.3C175.047 239.3 175.039 239.3 175.031 239.3C175.022 239.3 175.014 239.3 175.006 239.3C174.998 239.3 174.99 239.3 174.982 239.3C174.974 239.3 174.966 239.3 174.958 239.3C174.95 239.3 174.942 239.3 174.934 239.3C174.926 239.3 174.917 239.3 174.909 239.3C174.901 239.3 174.893 239.3 174.885 239.3C174.877 239.3 174.869 239.3 174.861 239.3C174.853 239.3 174.845 239.3 174.837 239.3C174.828 239.3 174.82 239.3 174.812 239.3C174.804 239.3 174.796 239.3 174.788 239.3C174.78 239.3 174.772 239.3 174.764 239.3C174.755 239.3 174.747 239.3 174.739 239.3C174.731 239.3 174.723 239.3 174.715 239.3C174.707 239.3 174.698 239.3 174.69 239.3C174.682 239.3 174.674 239.3 174.666 239.3C174.658 239.3 174.65 239.3 174.641 239.3C174.633 239.3 174.625 239.3 174.617 239.3C174.609 239.3 174.601 239.3 174.593 239.3C174.584 239.3 174.576 239.3 174.568 239.3C174.56 239.3 174.552 239.3 174.544 239.3C174.535 239.3 174.527 239.3 174.519 239.3C174.511 239.3 174.503 239.3 174.495 239.3C174.486 239.3 174.478 239.3 174.47 239.3C174.462 239.3 174.454 239.3 174.445 239.3C174.437 239.3 174.429 239.3 174.421 239.3C174.413 239.3 174.404 239.3 174.396 239.3C174.388 239.3 174.38 239.3 174.372 239.3C174.363 239.3 174.355 239.3 174.347 239.3C174.339 239.3 174.331 239.3 174.322 239.3C174.314 239.3 174.306 239.3 174.298 239.3C174.29 239.3 174.281 239.3 174.273 239.3C174.265 239.3 174.257 239.3 174.248 239.3C174.24 239.3 174.232 239.3 174.224 239.3C174.215 239.3 174.207 239.3 174.199 239.3C174.191 239.3 174.182 239.3 174.174 239.3C174.166 239.3 174.158 239.3 174.149 239.3C174.141 239.3 174.133 239.3 174.125 239.3C174.116 239.3 174.108 239.3 174.1 239.3C174.092 239.3 174.083 239.3 174.075 239.3C174.067 239.3 174.059 239.3 174.05 239.3C174.042 239.3 174.034 239.3 174.025 239.3C174.017 239.3 174.009 239.3 174.001 239.3C173.992 239.3 173.984 239.3 173.976 239.3C173.967 239.3 173.959 239.3 173.951 239.3C173.943 239.3 173.934 239.3 173.926 239.3C173.918 239.3 173.909 239.3 173.901 239.3C173.893 239.3 173.884 239.3 173.876 239.3C173.868 239.3 173.859 239.3 173.851 239.3C173.843 239.3 173.834 239.3 173.826 239.3C173.818 239.3 173.81 239.3 173.801 239.3C173.793 239.3 173.785 239.3 173.776 239.3C173.768 239.3 173.76 239.3 173.751 239.3C173.743 239.3 173.735 239.3 173.726 239.3C173.718 239.3 173.709 239.3 173.701 239.3C173.693 239.3 173.684 239.3 173.676 239.3C173.668 239.3 173.659 239.3 173.651 239.3C173.643 239.3 173.634 239.3 173.626 239.3C173.618 239.3 173.609 239.3 173.601 239.3C173.592 239.3 173.584 239.3 173.576 239.3C173.567 239.3 173.559 239.3 173.551 239.3C173.542 239.3 173.534 239.3 173.525 239.3C173.517 239.3 173.509 239.3 173.5 239.3C173.492 239.3 173.483 239.3 173.475 239.3C173.467 239.3 173.458 239.3 173.45 239.3C173.441 239.3 173.433 239.3 173.425 239.3C173.416 239.3 173.408 239.3 173.399 239.3C173.391 239.3 173.383 239.3 173.374 239.3C173.366 239.3 173.357 239.3 173.349 239.3C173.34 239.3 173.332 239.3 173.324 239.3C173.315 239.3 173.307 239.3 173.298 239.3C173.29 239.3 173.281 239.3 173.273 239.3C173.264 239.3 173.256 239.3 173.248 239.3C173.239 239.3 173.231 239.3 173.222 239.3C173.214 239.3 173.205 239.3 173.197 239.3C173.188 239.3 173.18 239.3 173.172 239.3C173.163 239.3 173.155 239.3 173.146 239.3C173.138 239.3 173.129 239.3 173.121 239.3C173.112 239.3 173.104 239.3 173.095 239.3C173.087 239.3 173.078 239.3 173.07 239.3C173.061 239.3 173.053 239.3 173.044 239.3C173.036 239.3 173.027 239.3 173.019 239.3C173.01 239.3 173.002 239.3 172.993 239.3C172.985 239.3 172.976 239.3 172.968 239.3C172.959 239.3 172.951 239.3 172.942 239.3C172.934 239.3 172.925 239.3 172.917 239.3C172.908 239.3 172.9 239.3 172.891 239.3C172.883 239.3 172.874 239.3 172.866 239.3C172.857 239.3 172.849 239.3 172.84 239.3C172.832 239.3 172.823 239.3 172.815 239.3C172.806 239.3 172.797 239.3 172.789 239.3C172.78 239.3 172.772 239.3 172.763 239.3C172.755 239.3 172.746 239.3 172.738 239.3C172.729 239.3 172.72 239.3 172.712 239.3C172.703 239.3 172.695 239.3 172.686 239.3C172.678 239.3 172.669 239.3 172.661 239.3C172.652 239.3 172.643 239.3 172.635 239.3C172.626 239.3 172.618 239.3 172.609 239.3C172.601 239.3 172.592 239.3 172.583 239.3C172.575 239.3 172.566 239.3 172.558 239.3C172.549 239.3 172.54 239.3 172.532 239.3C172.523 239.3 172.515 239.3 172.506 239.3C172.497 239.3 172.489 239.3 172.48 239.3C172.472 239.3 172.463 239.3 172.454 239.3C172.446 239.3 172.437 239.3 172.429 239.3C172.42 239.3 172.411 239.3 172.403 239.3C172.394 239.3 172.385 239.3 172.377 239.3C172.368 239.3 172.36 239.3 172.351 239.3C172.342 239.3 172.334 239.3 172.325 239.3C172.316 239.3 172.308 239.3 172.299 239.3C172.29 239.3 172.282 239.3 172.273 239.3C172.264 239.3 172.256 239.3 172.247 239.3C172.239 239.3 172.23 239.3 172.221 239.3C172.213 239.3 172.204 239.3 172.195 239.3C172.187 239.3 172.178 239.3 172.169 239.3C172.161 239.3 172.152 239.3 172.143 239.3C172.135 239.3 172.126 239.3 172.117 239.3C172.108 239.3 172.1 239.3 172.091 239.3C172.082 239.3 172.074 239.3 172.065 239.3C172.056 239.3 172.048 239.3 172.039 239.3C172.03 239.3 172.022 239.3 172.013 239.3C172.004 239.3 171.995 239.3 171.987 239.3C171.978 239.3 171.969 239.3 171.961 239.3C171.952 239.3 171.943 239.3 171.934 239.3C171.926 239.3 171.917 239.3 171.908 239.3C171.9 239.3 171.891 239.3 171.882 239.3C171.873 239.3 171.865 239.3 171.856 239.3C171.847 239.3 171.838 239.3 171.83 239.3C171.821 239.3 171.812 239.3 171.803 239.3C171.795 239.3 171.786 239.3 171.777 239.3C171.768 239.3 171.76 239.3 171.751 239.3C171.742 239.3 171.733 239.3 171.725 239.3C171.716 239.3 171.707 239.3 171.698 239.3C171.69 239.3 171.681 239.3 171.672 239.3C171.663 239.3 171.655 239.3 171.646 239.3C171.637 239.3 171.628 239.3 171.619 239.3C171.611 239.3 171.602 239.3 171.593 239.3C171.584 239.3 171.575 239.3 171.567 239.3C171.558 239.3 171.549 239.3 171.54 239.3C171.531 239.3 171.523 239.3 171.514 239.3C171.505 239.3 171.496 239.3 171.487 239.3C171.479 239.3 171.47 239.3 171.461 239.3C171.452 239.3 171.443 239.3 171.435 239.3C171.426 239.3 171.417 239.3 171.408 239.3C171.399 239.3 171.39 239.3 171.382 239.3C171.373 239.3 171.364 239.3 171.355 239.3C171.346 239.3 171.337 239.3 171.329 239.3C171.32 239.3 171.311 239.3 171.302 239.3C171.293 239.3 171.284 239.3 171.276 239.3C171.267 239.3 171.258 239.3 171.249 239.3C171.24 239.3 171.231 239.3 171.222 239.3C171.214 239.3 171.205 239.3 171.196 239.3C171.187 239.3 171.178 239.3 171.169 239.3C171.16 239.3 171.151 239.3 171.143 239.3C171.134 239.3 171.125 239.3 171.116 239.3C171.107 239.3 171.098 239.3 171.089 239.3C171.08 239.3 171.071 239.3 171.063 239.3C171.054 239.3 171.045 239.3 171.036 239.3C171.027 239.3 171.018 239.3 171.009 239.3C171 239.3 170.991 239.3 170.982 239.3C170.974 239.3 170.965 239.3 170.956 239.3C170.947 239.3 170.938 239.3 170.929 239.3C170.92 239.3 170.911 239.3 170.902 239.3C170.893 239.3 170.884 239.3 170.875 239.3C170.866 239.3 170.857 239.3 170.849 239.3C170.84 239.3 170.831 239.3 170.822 239.3C170.813 239.3 170.804 239.3 170.795 239.3C170.786 239.3 170.777 239.3 170.768 239.3C170.759 239.3 170.75 239.3 170.741 239.3C170.732 239.3 170.723 239.3 170.714 239.3C170.705 239.3 170.696 239.3 170.687 239.3C170.678 239.3 170.669 239.3 170.66 239.3C170.651 239.3 170.643 239.3 170.634 239.3C170.625 239.3 170.616 239.3 170.607 239.3C170.598 239.3 170.589 239.3 170.58 239.3C170.571 239.3 170.562 239.3 170.553 239.3C170.544 239.3 170.535 239.3 170.526 239.3C170.517 239.3 170.508 239.3 170.499 239.3C170.49 239.3 170.481 239.3 170.472 239.3C170.463 239.3 170.454 239.3 170.445 239.3C170.436 239.3 170.427 239.3 170.417 239.3C170.408 239.3 170.399 239.3 170.39 239.3C170.381 239.3 170.372 239.3 170.363 239.3C170.354 239.3 170.345 239.3 170.336 239.3C170.327 239.3 170.318 239.3 170.309 239.3C170.3 239.3 170.291 239.3 170.282 239.3C170.273 239.3 170.264 239.3 170.255 239.3C170.246 239.3 170.237 239.3 170.228 239.3C170.219 239.3 170.209 239.3 170.2 239.3C170.191 239.3 170.182 239.3 170.173 239.3C170.164 239.3 170.155 239.3 170.146 239.3C170.137 239.3 170.128 239.3 170.119 239.3C170.11 239.3 170.101 239.3 170.092 239.3C170.082 239.3 170.073 239.3 170.064 239.3C170.055 239.3 170.046 239.3 170.037 239.3C170.028 239.3 170.019 239.3 170.01 239.3C170.001 239.3 169.991 239.3 169.982 239.3C169.973 239.3 169.964 239.3 169.955 239.3C169.946 239.3 169.937 239.3 169.928 239.3C169.919 239.3 169.909 239.3 169.9 239.3C169.891 239.3 169.882 239.3 169.873 239.3C169.864 239.3 169.855 239.3 169.845 239.3C169.836 239.3 169.827 239.3 169.818 239.3C169.809 239.3 169.8 239.3 169.791 239.3C169.782 239.3 169.772 239.3 169.763 239.3C169.754 239.3 169.745 239.3 169.736 239.3C169.727 239.3 169.717 239.3 169.708 239.3C169.699 239.3 169.69 239.3 169.681 239.3C169.672 239.3 169.662 239.3 169.653 239.3C169.644 239.3 169.635 239.3 169.626 239.3C169.617 239.3 169.607 239.3 169.598 239.3C169.589 239.3 169.58 239.3 169.571 239.3C169.561 239.3 169.552 239.3 169.543 239.3C169.534 239.3 169.525 239.3 169.515 239.3C169.506 239.3 169.497 239.3 169.488 239.3C169.479 239.3 169.469 239.3 169.46 239.3C169.451 239.3 169.442 239.3 169.433 239.3C169.423 239.3 169.414 239.3 169.405 239.3C169.396 239.3 169.386 239.3 169.377 239.3C169.368 239.3 169.359 239.3 169.35 239.3C169.34 239.3 169.331 239.3 169.322 239.3C169.313 239.3 169.303 239.3 169.294 239.3C169.285 239.3 169.276 239.3 169.266 239.3C169.257 239.3 169.248 239.3 169.239 239.3C169.229 239.3 169.22 239.3 169.211 239.3C169.202 239.3 169.192 239.3 169.183 239.3C169.174 239.3 169.165 239.3 169.155 239.3C169.146 239.3 169.137 239.3 169.128 239.3C169.118 239.3 169.109 239.3 169.1 239.3C169.09 239.3 169.081 239.3 169.072 239.3C169.063 239.3 169.053 239.3 169.044 239.3C169.035 239.3 169.025 239.3 169.016 239.3C169.007 239.3 168.998 239.3 168.988 239.3C168.979 239.3 168.97 239.3 168.96 239.3C168.951 239.3 168.942 239.3 168.932 239.3C168.923 239.3 168.914 239.3 168.904 239.3C168.895 239.3 168.886 239.3 168.876 239.3C168.867 239.3 168.858 239.3 168.848 239.3C168.839 239.3 168.83 239.3 168.82 239.3C168.811 239.3 168.802 239.3 168.792 239.3C168.783 239.3 168.774 239.3 168.764 239.3C168.755 239.3 168.746 239.3 168.736 239.3C168.727 239.3 168.718 239.3 168.708 239.3C168.699 239.3 168.69 239.3 168.68 239.3C168.671 239.3 168.662 239.3 168.652 239.3C168.643 239.3 168.633 239.3 168.624 239.3C168.615 239.3 168.605 239.3 168.596 239.3C168.587 239.3 168.577 239.3 168.568 239.3C168.558 239.3 168.549 239.3 168.54 239.3C168.53 239.3 168.521 239.3 168.512 239.3C168.502 239.3 168.493 239.3 168.483 239.3C168.474 239.3 168.465 239.3 168.455 239.3C168.446 239.3 168.436 239.3 168.427 239.3C168.418 239.3 168.408 239.3 168.399 239.3C168.389 239.3 168.38 239.3 168.37 239.3C168.361 239.3 168.352 239.3 168.342 239.3C168.333 239.3 168.323 239.3 168.314 239.3C168.304 239.3 168.295 239.3 168.286 239.3C168.276 239.3 168.267 239.3 168.257 239.3C168.248 239.3 168.238 239.3 168.229 239.3C168.22 239.3 168.21 239.3 168.201 239.3C168.191 239.3 168.182 239.3 168.172 239.3C168.163 239.3 168.153 239.3 168.144 239.3C168.134 239.3 168.125 239.3 168.116 239.3C168.106 239.3 168.097 239.3 168.087 239.3C168.078 239.3 168.068 239.3 168.059 239.3C168.049 239.3 168.04 239.3 168.03 239.3C168.021 239.3 168.011 239.3 168.002 239.3C167.992 239.3 167.983 239.3 167.973 239.3C167.964 239.3 167.954 239.3 167.945 239.3C167.935 239.3 167.926 239.3 167.916 239.3C167.907 239.3 167.897 239.3 167.888 239.3C167.878 239.3 167.869 239.3 167.859 239.3C167.85 239.3 167.84 239.3 167.831 239.3C167.821 239.3 167.812 239.3 167.802 239.3C167.793 239.3 167.783 239.3 167.774 239.3C167.764 239.3 167.754 239.3 167.745 239.3C167.735 239.3 167.726 239.3 167.716 239.3C167.707 239.3 167.697 239.3 167.688 239.3C167.678 239.3 167.669 239.3 167.659 239.3C167.65 239.3 167.64 239.3 167.63 239.3C167.621 239.3 167.611 239.3 167.602 239.3C167.592 239.3 167.583 239.3 167.573 239.3C167.563 239.3 167.554 239.3 167.544 239.3C167.535 239.3 167.525 239.3 167.516 239.3C167.506 239.3 167.496 239.3 167.487 239.3C167.477 239.3 167.468 239.3 167.458 239.3C167.448 239.3 167.439 239.3 167.429 239.3C167.42 239.3 167.41 239.3 167.401 239.3C167.391 239.3 167.381 239.3 167.372 239.3C167.362 239.3 167.352 239.3 167.343 239.3C167.333 239.3 167.324 239.3 167.314 239.3C167.304 239.3 167.295 239.3 167.285 239.3C167.276 239.3 167.266 239.3 167.256 239.3C167.247 239.3 167.237 239.3 167.227 239.3C167.218 239.3 167.208 239.3 167.199 239.3C167.189 239.3 167.179 239.3 167.17 239.3C167.16 239.3 167.15 239.3 167.141 239.3C167.131 239.3 167.121 239.3 167.112 239.3C167.102 239.3 167.092 239.3 167.083 239.3C167.073 239.3 167.063 239.3 167.054 239.3C167.044 239.3 167.034 239.3 167.025 239.3C167.015 239.3 167.005 239.3 166.996 239.3C166.986 239.3 166.976 239.3 166.967 239.3C166.957 239.3 166.947 239.3 166.938 239.3C166.928 239.3 166.918 239.3 166.909 239.3C166.899 239.3 166.889 239.3 166.88 239.3C166.87 239.3 166.86 239.3 166.85 239.3C166.841 239.3 166.831 239.3 166.821 239.3C166.812 239.3 166.802 239.3 166.792 239.3C166.782 239.3 166.773 239.3 166.763 239.3C166.753 239.3 166.744 239.3 166.734 239.3C166.724 239.3 166.714 239.3 166.705 239.3C166.695 239.3 166.685 239.3 166.675 239.3C166.666 239.3 166.656 239.3 166.646 239.3C166.637 239.3 166.627 239.3 166.617 239.3C166.607 239.3 166.598 239.3 166.588 239.3C166.578 239.3 166.568 239.3 166.559 239.3C166.549 239.3 166.539 239.3 166.529 239.3C166.52 239.3 166.51 239.3 166.5 239.3V245.3C166.51 245.3 166.52 245.3 166.529 245.3C166.539 245.3 166.549 245.3 166.559 245.3C166.568 245.3 166.578 245.3 166.588 245.3C166.598 245.3 166.607 245.3 166.617 245.3C166.627 245.3 166.637 245.3 166.646 245.3C166.656 245.3 166.666 245.3 166.675 245.3C166.685 245.3 166.695 245.3 166.705 245.3C166.714 245.3 166.724 245.3 166.734 245.3C166.744 245.3 166.753 245.3 166.763 245.3C166.773 245.3 166.782 245.3 166.792 245.3C166.802 245.3 166.812 245.3 166.821 245.3C166.831 245.3 166.841 245.3 166.85 245.3C166.86 245.3 166.87 245.3 166.88 245.3C166.889 245.3 166.899 245.3 166.909 245.3C166.918 245.3 166.928 245.3 166.938 245.3C166.947 245.3 166.957 245.3 166.967 245.3C166.976 245.3 166.986 245.3 166.996 245.3C167.005 245.3 167.015 245.3 167.025 245.3C167.034 245.3 167.044 245.3 167.054 245.3C167.063 245.3 167.073 245.3 167.083 245.3C167.092 245.3 167.102 245.3 167.112 245.3C167.121 245.3 167.131 245.3 167.141 245.3C167.15 245.3 167.16 245.3 167.17 245.3C167.179 245.3 167.189 245.3 167.199 245.3C167.208 245.3 167.218 245.3 167.227 245.3C167.237 245.3 167.247 245.3 167.256 245.3C167.266 245.3 167.276 245.3 167.285 245.3C167.295 245.3 167.304 245.3 167.314 245.3C167.324 245.3 167.333 245.3 167.343 245.3C167.352 245.3 167.362 245.3 167.372 245.3C167.381 245.3 167.391 245.3 167.401 245.3C167.41 245.3 167.42 245.3 167.429 245.3C167.439 245.3 167.448 245.3 167.458 245.3C167.468 245.3 167.477 245.3 167.487 245.3C167.496 245.3 167.506 245.3 167.516 245.3C167.525 245.3 167.535 245.3 167.544 245.3C167.554 245.3 167.563 245.3 167.573 245.3C167.583 245.3 167.592 245.3 167.602 245.3C167.611 245.3 167.621 245.3 167.63 245.3C167.64 245.3 167.65 245.3 167.659 245.3C167.669 245.3 167.678 245.3 167.688 245.3C167.697 245.3 167.707 245.3 167.716 245.3C167.726 245.3 167.735 245.3 167.745 245.3C167.754 245.3 167.764 245.3 167.774 245.3C167.783 245.3 167.793 245.3 167.802 245.3C167.812 245.3 167.821 245.3 167.831 245.3C167.84 245.3 167.85 245.3 167.859 245.3C167.869 245.3 167.878 245.3 167.888 245.3C167.897 245.3 167.907 245.3 167.916 245.3C167.926 245.3 167.935 245.3 167.945 245.3C167.954 245.3 167.964 245.3 167.973 245.3C167.983 245.3 167.992 245.3 168.002 245.3C168.011 245.3 168.021 245.3 168.03 245.3C168.04 245.3 168.049 245.3 168.059 245.3C168.068 245.3 168.078 245.3 168.087 245.3C168.097 245.3 168.106 245.3 168.116 245.3C168.125 245.3 168.134 245.3 168.144 245.3C168.153 245.3 168.163 245.3 168.172 245.3C168.182 245.3 168.191 245.3 168.201 245.3C168.21 245.3 168.22 245.3 168.229 245.3C168.238 245.3 168.248 245.3 168.257 245.3C168.267 245.3 168.276 245.3 168.286 245.3C168.295 245.3 168.304 245.3 168.314 245.3C168.323 245.3 168.333 245.3 168.342 245.3C168.352 245.3 168.361 245.3 168.37 245.3C168.38 245.3 168.389 245.3 168.399 245.3C168.408 245.3 168.418 245.3 168.427 245.3C168.436 245.3 168.446 245.3 168.455 245.3C168.465 245.3 168.474 245.3 168.483 245.3C168.493 245.3 168.502 245.3 168.512 245.3C168.521 245.3 168.53 245.3 168.54 245.3C168.549 245.3 168.558 245.3 168.568 245.3C168.577 245.3 168.587 245.3 168.596 245.3C168.605 245.3 168.615 245.3 168.624 245.3C168.633 245.3 168.643 245.3 168.652 245.3C168.662 245.3 168.671 245.3 168.68 245.3C168.69 245.3 168.699 245.3 168.708 245.3C168.718 245.3 168.727 245.3 168.736 245.3C168.746 245.3 168.755 245.3 168.764 245.3C168.774 245.3 168.783 245.3 168.792 245.3C168.802 245.3 168.811 245.3 168.82 245.3C168.83 245.3 168.839 245.3 168.848 245.3C168.858 245.3 168.867 245.3 168.876 245.3C168.886 245.3 168.895 245.3 168.904 245.3C168.914 245.3 168.923 245.3 168.932 245.3C168.942 245.3 168.951 245.3 168.96 245.3C168.97 245.3 168.979 245.3 168.988 245.3C168.998 245.3 169.007 245.3 169.016 245.3C169.025 245.3 169.035 245.3 169.044 245.3C169.053 245.3 169.063 245.3 169.072 245.3C169.081 245.3 169.09 245.3 169.1 245.3C169.109 245.3 169.118 245.3 169.128 245.3C169.137 245.3 169.146 245.3 169.155 245.3C169.165 245.3 169.174 245.3 169.183 245.3C169.192 245.3 169.202 245.3 169.211 245.3C169.22 245.3 169.229 245.3 169.239 245.3C169.248 245.3 169.257 245.3 169.266 245.3C169.276 245.3 169.285 245.3 169.294 245.3C169.303 245.3 169.313 245.3 169.322 245.3C169.331 245.3 169.34 245.3 169.35 245.3C169.359 245.3 169.368 245.3 169.377 245.3C169.386 245.3 169.396 245.3 169.405 245.3C169.414 245.3 169.423 245.3 169.433 245.3C169.442 245.3 169.451 245.3 169.46 245.3C169.469 245.3 169.479 245.3 169.488 245.3C169.497 245.3 169.506 245.3 169.515 245.3C169.525 245.3 169.534 245.3 169.543 245.3C169.552 245.3 169.561 245.3 169.571 245.3C169.58 245.3 169.589 245.3 169.598 245.3C169.607 245.3 169.617 245.3 169.626 245.3C169.635 245.3 169.644 245.3 169.653 245.3C169.662 245.3 169.672 245.3 169.681 245.3C169.69 245.3 169.699 245.3 169.708 245.3C169.717 245.3 169.727 245.3 169.736 245.3C169.745 245.3 169.754 245.3 169.763 245.3C169.772 245.3 169.782 245.3 169.791 245.3C169.8 245.3 169.809 245.3 169.818 245.3C169.827 245.3 169.836 245.3 169.845 245.3C169.855 245.3 169.864 245.3 169.873 245.3C169.882 245.3 169.891 245.3 169.9 245.3C169.909 245.3 169.919 245.3 169.928 245.3C169.937 245.3 169.946 245.3 169.955 245.3C169.964 245.3 169.973 245.3 169.982 245.3C169.991 245.3 170.001 245.3 170.01 245.3C170.019 245.3 170.028 245.3 170.037 245.3C170.046 245.3 170.055 245.3 170.064 245.3C170.073 245.3 170.082 245.3 170.092 245.3C170.101 245.3 170.11 245.3 170.119 245.3C170.128 245.3 170.137 245.3 170.146 245.3C170.155 245.3 170.164 245.3 170.173 245.3C170.182 245.3 170.191 245.3 170.2 245.3C170.209 245.3 170.219 245.3 170.228 245.3C170.237 245.3 170.246 245.3 170.255 245.3C170.264 245.3 170.273 245.3 170.282 245.3C170.291 245.3 170.3 245.3 170.309 245.3C170.318 245.3 170.327 245.3 170.336 245.3C170.345 245.3 170.354 245.3 170.363 245.3C170.372 245.3 170.381 245.3 170.39 245.3C170.399 245.3 170.408 245.3 170.417 245.3C170.427 245.3 170.436 245.3 170.445 245.3C170.454 245.3 170.463 245.3 170.472 245.3C170.481 245.3 170.49 245.3 170.499 245.3C170.508 245.3 170.517 245.3 170.526 245.3C170.535 245.3 170.544 245.3 170.553 245.3C170.562 245.3 170.571 245.3 170.58 245.3C170.589 245.3 170.598 245.3 170.607 245.3C170.616 245.3 170.625 245.3 170.634 245.3C170.643 245.3 170.651 245.3 170.66 245.3C170.669 245.3 170.678 245.3 170.687 245.3C170.696 245.3 170.705 245.3 170.714 245.3C170.723 245.3 170.732 245.3 170.741 245.3C170.75 245.3 170.759 245.3 170.768 245.3C170.777 245.3 170.786 245.3 170.795 245.3C170.804 245.3 170.813 245.3 170.822 245.3C170.831 245.3 170.84 245.3 170.849 245.3C170.857 245.3 170.866 245.3 170.875 245.3C170.884 245.3 170.893 245.3 170.902 245.3C170.911 245.3 170.92 245.3 170.929 245.3C170.938 245.3 170.947 245.3 170.956 245.3C170.965 245.3 170.974 245.3 170.982 245.3C170.991 245.3 171 245.3 171.009 245.3C171.018 245.3 171.027 245.3 171.036 245.3C171.045 245.3 171.054 245.3 171.063 245.3C171.071 245.3 171.08 245.3 171.089 245.3C171.098 245.3 171.107 245.3 171.116 245.3C171.125 245.3 171.134 245.3 171.143 245.3C171.151 245.3 171.16 245.3 171.169 245.3C171.178 245.3 171.187 245.3 171.196 245.3C171.205 245.3 171.214 245.3 171.222 245.3C171.231 245.3 171.24 245.3 171.249 245.3C171.258 245.3 171.267 245.3 171.276 245.3C171.284 245.3 171.293 245.3 171.302 245.3C171.311 245.3 171.32 245.3 171.329 245.3C171.337 245.3 171.346 245.3 171.355 245.3C171.364 245.3 171.373 245.3 171.382 245.3C171.39 245.3 171.399 245.3 171.408 245.3C171.417 245.3 171.426 245.3 171.435 245.3C171.443 245.3 171.452 245.3 171.461 245.3C171.47 245.3 171.479 245.3 171.487 245.3C171.496 245.3 171.505 245.3 171.514 245.3C171.523 245.3 171.531 245.3 171.54 245.3C171.549 245.3 171.558 245.3 171.567 245.3C171.575 245.3 171.584 245.3 171.593 245.3C171.602 245.3 171.611 245.3 171.619 245.3C171.628 245.3 171.637 245.3 171.646 245.3C171.655 245.3 171.663 245.3 171.672 245.3C171.681 245.3 171.69 245.3 171.698 245.3C171.707 245.3 171.716 245.3 171.725 245.3C171.733 245.3 171.742 245.3 171.751 245.3C171.76 245.3 171.768 245.3 171.777 245.3C171.786 245.3 171.795 245.3 171.803 245.3C171.812 245.3 171.821 245.3 171.83 245.3C171.838 245.3 171.847 245.3 171.856 245.3C171.865 245.3 171.873 245.3 171.882 245.3C171.891 245.3 171.9 245.3 171.908 245.3C171.917 245.3 171.926 245.3 171.934 245.3C171.943 245.3 171.952 245.3 171.961 245.3C171.969 245.3 171.978 245.3 171.987 245.3C171.995 245.3 172.004 245.3 172.013 245.3C172.022 245.3 172.03 245.3 172.039 245.3C172.048 245.3 172.056 245.3 172.065 245.3C172.074 245.3 172.082 245.3 172.091 245.3C172.1 245.3 172.108 245.3 172.117 245.3C172.126 245.3 172.135 245.3 172.143 245.3C172.152 245.3 172.161 245.3 172.169 245.3C172.178 245.3 172.187 245.3 172.195 245.3C172.204 245.3 172.213 245.3 172.221 245.3C172.23 245.3 172.239 245.3 172.247 245.3C172.256 245.3 172.264 245.3 172.273 245.3C172.282 245.3 172.29 245.3 172.299 245.3C172.308 245.3 172.316 245.3 172.325 245.3C172.334 245.3 172.342 245.3 172.351 245.3C172.36 245.3 172.368 245.3 172.377 245.3C172.385 245.3 172.394 245.3 172.403 245.3C172.411 245.3 172.42 245.3 172.429 245.3C172.437 245.3 172.446 245.3 172.454 245.3C172.463 245.3 172.472 245.3 172.48 245.3C172.489 245.3 172.497 245.3 172.506 245.3C172.515 245.3 172.523 245.3 172.532 245.3C172.54 245.3 172.549 245.3 172.558 245.3C172.566 245.3 172.575 245.3 172.583 245.3C172.592 245.3 172.601 245.3 172.609 245.3C172.618 245.3 172.626 245.3 172.635 245.3C172.643 245.3 172.652 245.3 172.661 245.3C172.669 245.3 172.678 245.3 172.686 245.3C172.695 245.3 172.703 245.3 172.712 245.3C172.72 245.3 172.729 245.3 172.738 245.3C172.746 245.3 172.755 245.3 172.763 245.3C172.772 245.3 172.78 245.3 172.789 245.3C172.797 245.3 172.806 245.3 172.815 245.3C172.823 245.3 172.832 245.3 172.84 245.3C172.849 245.3 172.857 245.3 172.866 245.3C172.874 245.3 172.883 245.3 172.891 245.3C172.9 245.3 172.908 245.3 172.917 245.3C172.925 245.3 172.934 245.3 172.942 245.3C172.951 245.3 172.959 245.3 172.968 245.3C172.976 245.3 172.985 245.3 172.993 245.3C173.002 245.3 173.01 245.3 173.019 245.3C173.027 245.3 173.036 245.3 173.044 245.3C173.053 245.3 173.061 245.3 173.07 245.3C173.078 245.3 173.087 245.3 173.095 245.3C173.104 245.3 173.112 245.3 173.121 245.3C173.129 245.3 173.138 245.3 173.146 245.3C173.155 245.3 173.163 245.3 173.172 245.3C173.18 245.3 173.188 245.3 173.197 245.3C173.205 245.3 173.214 245.3 173.222 245.3C173.231 245.3 173.239 245.3 173.248 245.3C173.256 245.3 173.264 245.3 173.273 245.3C173.281 245.3 173.29 245.3 173.298 245.3C173.307 245.3 173.315 245.3 173.324 245.3C173.332 245.3 173.34 245.3 173.349 245.3C173.357 245.3 173.366 245.3 173.374 245.3C173.383 245.3 173.391 245.3 173.399 245.3C173.408 245.3 173.416 245.3 173.425 245.3C173.433 245.3 173.441 245.3 173.45 245.3C173.458 245.3 173.467 245.3 173.475 245.3C173.483 245.3 173.492 245.3 173.5 245.3C173.509 245.3 173.517 245.3 173.525 245.3C173.534 245.3 173.542 245.3 173.551 245.3C173.559 245.3 173.567 245.3 173.576 245.3C173.584 245.3 173.592 245.3 173.601 245.3C173.609 245.3 173.618 245.3 173.626 245.3C173.634 245.3 173.643 245.3 173.651 245.3C173.659 245.3 173.668 245.3 173.676 245.3C173.684 245.3 173.693 245.3 173.701 245.3C173.709 245.3 173.718 245.3 173.726 245.3C173.735 245.3 173.743 245.3 173.751 245.3C173.76 245.3 173.768 245.3 173.776 245.3C173.785 245.3 173.793 245.3 173.801 245.3C173.81 245.3 173.818 245.3 173.826 245.3C173.834 245.3 173.843 245.3 173.851 245.3C173.859 245.3 173.868 245.3 173.876 245.3C173.884 245.3 173.893 245.3 173.901 245.3C173.909 245.3 173.918 245.3 173.926 245.3C173.934 245.3 173.943 245.3 173.951 245.3C173.959 245.3 173.967 245.3 173.976 245.3C173.984 245.3 173.992 245.3 174.001 245.3C174.009 245.3 174.017 245.3 174.025 245.3C174.034 245.3 174.042 245.3 174.05 245.3C174.059 245.3 174.067 245.3 174.075 245.3C174.083 245.3 174.092 245.3 174.1 245.3C174.108 245.3 174.116 245.3 174.125 245.3C174.133 245.3 174.141 245.3 174.149 245.3C174.158 245.3 174.166 245.3 174.174 245.3C174.182 245.3 174.191 245.3 174.199 245.3C174.207 245.3 174.215 245.3 174.224 245.3C174.232 245.3 174.24 245.3 174.248 245.3C174.257 245.3 174.265 245.3 174.273 245.3C174.281 245.3 174.29 245.3 174.298 245.3C174.306 245.3 174.314 245.3 174.322 245.3C174.331 245.3 174.339 245.3 174.347 245.3C174.355 245.3 174.363 245.3 174.372 245.3C174.38 245.3 174.388 245.3 174.396 245.3C174.404 245.3 174.413 245.3 174.421 245.3C174.429 245.3 174.437 245.3 174.445 245.3C174.454 245.3 174.462 245.3 174.47 245.3C174.478 245.3 174.486 245.3 174.495 245.3C174.503 245.3 174.511 245.3 174.519 245.3C174.527 245.3 174.535 245.3 174.544 245.3C174.552 245.3 174.56 245.3 174.568 245.3C174.576 245.3 174.584 245.3 174.593 245.3C174.601 245.3 174.609 245.3 174.617 245.3C174.625 245.3 174.633 245.3 174.641 245.3C174.65 245.3 174.658 245.3 174.666 245.3C174.674 245.3 174.682 245.3 174.69 245.3C174.698 245.3 174.707 245.3 174.715 245.3C174.723 245.3 174.731 245.3 174.739 245.3C174.747 245.3 174.755 245.3 174.764 245.3C174.772 245.3 174.78 245.3 174.788 245.3C174.796 245.3 174.804 245.3 174.812 245.3C174.82 245.3 174.828 245.3 174.837 245.3C174.845 245.3 174.853 245.3 174.861 245.3C174.869 245.3 174.877 245.3 174.885 245.3C174.893 245.3 174.901 245.3 174.909 245.3C174.917 245.3 174.926 245.3 174.934 245.3C174.942 245.3 174.95 245.3 174.958 245.3C174.966 245.3 174.974 245.3 174.982 245.3C174.99 245.3 174.998 245.3 175.006 245.3C175.014 245.3 175.022 245.3 175.031 245.3C175.039 245.3 175.047 245.3 175.055 245.3C175.063 245.3 175.071 245.3 175.079 245.3C175.087 245.3 175.095 245.3 175.103 245.3C175.111 245.3 175.119 245.3 175.127 245.3C175.135 245.3 175.143 245.3 175.151 245.3C175.159 245.3 175.167 245.3 175.175 245.3C175.183 245.3 175.191 245.3 175.199 245.3C175.207 245.3 175.215 245.3 175.223 245.3C175.232 245.3 175.24 245.3 175.248 245.3C175.256 245.3 175.264 245.3 175.272 245.3C175.28 245.3 175.288 245.3 175.296 245.3C175.304 245.3 175.312 245.3 175.32 245.3C175.328 245.3 175.336 245.3 175.344 245.3C175.352 245.3 175.36 245.3 175.368 245.3C175.376 245.3 175.384 245.3 175.392 245.3C175.399 245.3 175.407 245.3 175.415 245.3C175.423 245.3 175.431 245.3 175.439 245.3C175.447 245.3 175.455 245.3 175.463 245.3C175.471 245.3 175.479 245.3 175.487 245.3C175.495 245.3 175.503 245.3 175.511 245.3C175.519 245.3 175.527 245.3 175.535 245.3C175.543 245.3 175.551 245.3 175.559 245.3C175.567 245.3 175.575 245.3 175.583 245.3C175.59 245.3 175.598 245.3 175.606 245.3C175.614 245.3 175.622 245.3 175.63 245.3C175.638 245.3 175.646 245.3 175.654 245.3C175.662 245.3 175.67 245.3 175.678 245.3C175.686 245.3 175.694 245.3 175.701 245.3C175.709 245.3 175.717 245.3 175.725 245.3C175.733 245.3 175.741 245.3 175.749 245.3C175.757 245.3 175.765 245.3 175.773 245.3C175.78 245.3 175.788 245.3 175.796 245.3C175.804 245.3 175.812 245.3 175.82 245.3C175.828 245.3 175.836 245.3 175.844 245.3C175.851 245.3 175.859 245.3 175.867 245.3C175.875 245.3 175.883 245.3 175.891 245.3C175.899 245.3 175.907 245.3 175.914 245.3C175.922 245.3 175.93 245.3 175.938 245.3C175.946 245.3 175.954 245.3 175.962 245.3C175.969 245.3 175.977 245.3 175.985 245.3C175.993 245.3 176.001 245.3 176.009 245.3C176.017 245.3 176.024 245.3 176.032 245.3C176.04 245.3 176.048 245.3 176.056 245.3C176.064 245.3 176.071 245.3 176.079 245.3C176.087 245.3 176.095 245.3 176.103 245.3C176.11 245.3 176.118 245.3 176.126 245.3C176.134 245.3 176.142 245.3 176.15 245.3C176.157 245.3 176.165 245.3 176.173 245.3C176.181 245.3 176.189 245.3 176.196 245.3C176.204 245.3 176.212 245.3 176.22 245.3C176.228 245.3 176.235 245.3 176.243 245.3C176.251 245.3 176.259 245.3 176.267 245.3C176.274 245.3 176.282 245.3 176.29 245.3C176.298 245.3 176.305 245.3 176.313 245.3C176.321 245.3 176.329 245.3 176.337 245.3C176.344 245.3 176.352 245.3 176.36 245.3C176.368 245.3 176.375 245.3 176.383 245.3C176.391 245.3 176.399 245.3 176.406 245.3C176.414 245.3 176.422 245.3 176.43 245.3C176.437 245.3 176.445 245.3 176.453 245.3C176.461 245.3 176.468 245.3 176.476 245.3C176.484 245.3 176.492 245.3 176.499 245.3C176.507 245.3 176.515 245.3 176.522 245.3C176.53 245.3 176.538 245.3 176.546 245.3C176.553 245.3 176.561 245.3 176.569 245.3C176.576 245.3 176.584 245.3 176.592 245.3C176.6 245.3 176.607 245.3 176.615 245.3C176.623 245.3 176.63 245.3 176.638 245.3C176.646 245.3 176.654 245.3 176.661 245.3C176.669 245.3 176.677 245.3 176.684 245.3C176.692 245.3 176.7 245.3 176.707 245.3C176.715 245.3 176.723 245.3 176.73 245.3C176.738 245.3 176.746 245.3 176.753 245.3C176.761 245.3 176.769 245.3 176.776 245.3C176.784 245.3 176.792 245.3 176.799 245.3C176.807 245.3 176.815 245.3 176.822 245.3C176.83 245.3 176.838 245.3 176.845 245.3C176.853 245.3 176.861 245.3 176.868 245.3C176.876 245.3 176.884 245.3 176.891 245.3C176.899 245.3 176.906 245.3 176.914 245.3C176.922 245.3 176.929 245.3 176.937 245.3C176.945 245.3 176.952 245.3 176.96 245.3C176.968 245.3 176.975 245.3 176.983 245.3C176.99 245.3 176.998 245.3 177.006 245.3C177.013 245.3 177.021 245.3 177.028 245.3C177.036 245.3 177.044 245.3 177.051 245.3C177.059 245.3 177.066 245.3 177.074 245.3C177.082 245.3 177.089 245.3 177.097 245.3C177.104 245.3 177.112 245.3 177.12 245.3C177.127 245.3 177.135 245.3 177.142 245.3C177.15 245.3 177.158 245.3 177.165 245.3C177.173 245.3 177.18 245.3 177.188 245.3C177.195 245.3 177.203 245.3 177.211 245.3C177.218 245.3 177.226 245.3 177.233 245.3C177.241 245.3 177.248 245.3 177.256 245.3C177.263 245.3 177.271 245.3 177.279 245.3C177.286 245.3 177.294 245.3 177.301 245.3C177.309 245.3 177.316 245.3 177.324 245.3C177.331 245.3 177.339 245.3 177.346 245.3C177.354 245.3 177.361 245.3 177.369 245.3C177.377 245.3 177.384 245.3 177.392 245.3C177.399 245.3 177.407 245.3 177.414 245.3C177.422 245.3 177.429 245.3 177.437 245.3C177.444 245.3 177.452 245.3 177.459 245.3C177.467 245.3 177.474 245.3 177.482 245.3C177.489 245.3 177.497 245.3 177.504 245.3C177.512 245.3 177.519 245.3 177.527 245.3C177.534 245.3 177.542 245.3 177.549 245.3C177.557 245.3 177.564 245.3 177.572 245.3C177.579 245.3 177.587 245.3 177.594 245.3C177.602 245.3 177.609 245.3 177.616 245.3C177.624 245.3 177.631 245.3 177.639 245.3C177.646 245.3 177.654 245.3 177.661 245.3C177.669 245.3 177.676 245.3 177.684 245.3C177.691 245.3 177.699 245.3 177.706 245.3C177.713 245.3 177.721 245.3 177.728 245.3C177.736 245.3 177.743 245.3 177.751 245.3C177.758 245.3 177.765 245.3 177.773 245.3C177.78 245.3 177.788 245.3 177.795 245.3C177.803 245.3 177.81 245.3 177.817 245.3C177.825 245.3 177.832 245.3 177.84 245.3C177.847 245.3 177.855 245.3 177.862 245.3C177.869 245.3 177.877 245.3 177.884 245.3C177.892 245.3 177.899 245.3 177.906 245.3C177.914 245.3 177.921 245.3 177.929 245.3C177.936 245.3 177.943 245.3 177.951 245.3C177.958 245.3 177.966 245.3 177.973 245.3C177.98 245.3 177.988 245.3 177.995 245.3C178.002 245.3 178.01 245.3 178.017 245.3C178.025 245.3 178.032 245.3 178.039 245.3C178.047 245.3 178.054 245.3 178.061 245.3C178.069 245.3 178.076 245.3 178.083 245.3C178.091 245.3 178.098 245.3 178.106 245.3C178.113 245.3 178.12 245.3 178.128 245.3C178.135 245.3 178.142 245.3 178.15 245.3C178.157 245.3 178.164 245.3 178.172 245.3C178.179 245.3 178.186 245.3 178.194 245.3C178.201 245.3 178.208 245.3 178.216 245.3C178.223 245.3 178.23 245.3 178.238 245.3C178.245 245.3 178.252 245.3 178.26 245.3C178.267 245.3 178.274 245.3 178.281 245.3C178.289 245.3 178.296 245.3 178.303 245.3C178.311 245.3 178.318 245.3 178.325 245.3C178.333 245.3 178.34 245.3 178.347 245.3C178.354 245.3 178.362 245.3 178.369 245.3C178.376 245.3 178.384 245.3 178.391 245.3C178.398 245.3 178.405 245.3 178.413 245.3C178.42 245.3 178.427 245.3 178.435 245.3C178.442 245.3 178.449 245.3 178.456 245.3C178.464 245.3 178.471 245.3 178.478 245.3C178.485 245.3 178.493 245.3 178.5 245.3C178.507 245.3 178.514 245.3 178.522 245.3C178.529 245.3 178.536 245.3 178.543 245.3C178.551 245.3 178.558 245.3 178.565 245.3C178.572 245.3 178.58 245.3 178.587 245.3C178.594 245.3 178.601 245.3 178.609 245.3C178.616 245.3 178.623 245.3 178.63 245.3C178.637 245.3 178.645 245.3 178.652 245.3C178.659 245.3 178.666 245.3 178.674 245.3C178.681 245.3 178.688 245.3 178.695 245.3C178.702 245.3 178.71 245.3 178.717 245.3C178.724 245.3 178.731 245.3 178.738 245.3C178.746 245.3 178.753 245.3 178.76 245.3C178.767 245.3 178.774 245.3 178.782 245.3C178.789 245.3 178.796 245.3 178.803 245.3C178.81 245.3 178.817 245.3 178.825 245.3C178.832 245.3 178.839 245.3 178.846 245.3C178.853 245.3 178.86 245.3 178.868 245.3C178.875 245.3 178.882 245.3 178.889 245.3C178.896 245.3 178.903 245.3 178.911 245.3C178.918 245.3 178.925 245.3 178.932 245.3C178.939 245.3 178.946 245.3 178.954 245.3C178.961 245.3 178.968 245.3 178.975 245.3C178.982 245.3 178.989 245.3 178.996 245.3C179.003 245.3 179.011 245.3 179.018 245.3C179.025 245.3 179.032 245.3 179.039 245.3C179.046 245.3 179.053 245.3 179.06 245.3C179.068 245.3 179.075 245.3 179.082 245.3C179.089 245.3 179.096 245.3 179.103 245.3C179.11 245.3 179.117 245.3 179.124 245.3C179.132 245.3 179.139 245.3 179.146 245.3C179.153 245.3 179.16 245.3 179.167 245.3C179.174 245.3 179.181 245.3 179.188 245.3C179.195 245.3 179.202 245.3 179.21 245.3C179.217 245.3 179.224 245.3 179.231 245.3C179.238 245.3 179.245 245.3 179.252 245.3C179.259 245.3 179.266 245.3 179.273 245.3C179.28 245.3 179.287 245.3 179.294 245.3C179.301 245.3 179.308 245.3 179.316 245.3C179.323 245.3 179.33 245.3 179.337 245.3C179.344 245.3 179.351 245.3 179.358 245.3C179.365 245.3 179.372 245.3 179.379 245.3C179.386 245.3 179.393 245.3 179.4 245.3V239.3ZM166.5 239.3C161.309 239.3 156.643 239.818 152.537 240.899L154.063 246.701C157.557 245.782 161.691 245.3 166.5 245.3V239.3ZM152.537 240.899C148.642 241.924 145.122 243.06 141.986 244.315L144.214 249.885C147.078 248.74 150.358 247.676 154.063 246.701L152.537 240.899ZM142.151 244.254C139.134 245.26 136.507 246.169 134.275 246.981L136.325 252.619C138.493 251.831 141.066 250.94 144.049 249.946L142.151 244.254ZM134.275 246.981C132.386 247.667 130.859 247.855 129.631 247.718L128.969 253.682C131.341 253.945 133.814 253.533 136.325 252.619L134.275 246.981ZM130.177 247.831L119.377 244.531L117.623 250.269L128.423 253.569L130.177 247.831ZM118.007 244.441L100.007 247.441L100.993 253.359L118.993 250.359L118.007 244.441ZM103.196 249.083L96.8957 236.183L91.5043 238.817L97.8043 251.717L103.196 249.083ZM97.1172 238.2L98.9172 230.7L93.0828 229.3L91.2828 236.8L97.1172 238.2ZM97.4492 232.627L106.149 227.827L103.251 222.573L94.5508 227.373L97.4492 232.627Z" fill="black" mask="url(#path-4-outside-1_0_1)"/>
</g>
</g>
<defs>
<filter id="filter0_d_0_1" x="11" y="14" width="298" height="298" filterUnits="userSpaceOnUse" color-interpolation-filters="sRGB">
<feFlood flood-opacity="0" result="BackgroundImageFix"/>
<feColorMatrix in="SourceAlpha" type="matrix" values="0 0 0 0 0 0 0 0 0 0 0 0 0 0 0 0 0 0 127 0" result="hardAlpha"/>
<feOffset dy="4"/>
<feGaussianBlur stdDeviation="2"/>
<feComposite in2="hardAlpha" operator="out"/>
<feColorMatrix type="matrix" values="0 0 0 0 0 0 0 0 0 0 0 0 0 0 0 0 0 0 0.25 0"/>
<feBlend mode="normal" in2="BackgroundImageFix" result="effect1_dropShadow_0_1"/>
<feBlend mode="normal" in="SourceGraphic" in2="effect1_dropShadow_0_1" result="shape"/>
</filter>
<filter id="filter1_d_0_1" x="94.2" y="56.6" width="142.2" height="208.4" filterUnits="userSpaceOnUse" color-interpolation-filters="sRGB">
<feFlood flood-opacity="0" result="BackgroundImageFix"/>
<feColorMatrix in="SourceAlpha" type="matrix" values="0 0 0 0 0 0 0 0 0 0 0 0 0 0 0 0 0 0 127 0" result="hardAlpha"/>
<feOffset dx="5" dy="10"/>
<feGaussianBlur stdDeviation="2"/>
<feComposite in2="hardAlpha" operator="out"/>
<feColorMatrix type="matrix" values="0 0 0 0 0 0 0 0 0 0 0 0 0 0 0 0 0 0 0.5 0"/>
<feBlend mode="normal" in2="BackgroundImageFix" result="effect1_dropShadow_0_1"/>
<feBlend mode="normal" in="SourceGraphic" in2="effect1_dropShadow_0_1" result="shape"/>
</filter>
<clipPath id="clip0_0_1">
<rect width="320" height="320" fill="white"/>
</clipPath>
</defs>
</svg>
